{"title":"PassionHD - Pretty Pearl Necklace (Teal Conrad)[08-29-2016].mp4","uid":15707368,"size":799320378,"categoryP":"porn","categoryS":"hd___movies","magnet":"?xt=urn:btih:9f3ef1dafb8c2bf5f0192ab03aa850cff84e1abe&amp;dn=PassionHD+-+Pretty+Pearl+Necklace+%28Teal+Conrad%29%5B08-29-2016%5D.mp4&amp;tr=udp%3A%2F%2Ftracker.leechers-paradise.org%3A6969&amp;tr=udp%3A%2F%2Fzer0day.ch%3A1337&amp;tr=udp%3A%2F%2Fopen.demonii.com%3A1337&amp;tr=udp%3A%2F%2Ftracker.coppersurfer.tk%3A6969&amp;tr=udp%3A%2F%2Fexodus.desync.com%3A6969","seeders":0,"leechers":1,"uploader":"freemetoo","files":1,"time":1472535302,"description":"General\r\nFormat                                   : MPEG-4\r\nFormat profile                           : Base Media\r\nCodec ID                                 : isom (isom/iso2/avc1/mp41)\r\nFile size                                : 762 MiB\r\nDuration                                 : 25mn 8s\r\nOverall bit rate mode                    : Variable\r\nOverall bit rate                         : 4 239 Kbps\r\nWriting application                      : Lavf55.44.100\r\n\r\nVideo\r\nID                                       : 1\r\nFormat                                   : AVC\r\nFormat/Info                              : Advanced Video Codec\r\nFormat profile                           :   \r\nFormat settings, CABAC                   : No\r\nFormat settings, ReFrames                : 5 frames\r\nCodec ID                                 : avc1\r\nCodec ID/Info                            : Advanced Video Coding\r\nDuration                                 : 25mn 8s\r\nBit rate                                 : 4 120 Kbps\r\nWidth                                    : 1 280 pixels\r\nHeight                                   : 720 pixels\r\nDisplay aspect ratio                     : 16:9\r\nFrame rate mode                          : Constant\r\nFrame rate                               : 23.976 (23976/1000) fps\r\nColor space                              : YUV\r\nChroma subsampling                       : 4:2:0\r\nBit depth                                : 8 bits\r\nScan type                                : Progressive\r\nBits/(Pixel*Frame)                       : 0.186\r\nStream size                              : 741 MiB (97%)\r\nWriting library                          : x264 core 142 r2431 a5831aa\r\nEncoding settings                        : cabac=0 / ref=5 / deblock=1:0:0 / analyse=0x1:0x111 / me=umh / subme=8 / psy=1 / psy_rd=1.00:0.00 / mixed_ref=1 / me_range=16 / chroma_me=1 / trellis=1 / 8x8dct=0 / cqm=0 / deadzone=21,11 / fast_pskip=1 / chroma_qp_offset=-2 / threads=2 / lookahead_threads=1 / sliced_threads=0 / nr=0 / decimate=1 / interlaced=0 / bluray_compat=0 / constrained_intra=0 / bframes=0 / weightp=0 / keyint=250 / keyint_min=23 / scenecut=40 / intra_refresh=0 / rc_lookahead=50 / rc=crf / mbtree=1 / crf=18.0 / qcomp=0.60 / qpmin=0 / qpmax=69 / qpstep=4 / ip_ratio=1.40 / aq=1:1.00\r\nLanguage                                 : English\r\n\r\nAudio\r\nID                                       : 2\r\nFormat                                   : AAC\r\nFormat/Info                              : Advanced Audio Codec\r\nFormat profile                           : LC\r\nCodec ID                                 : 40\r\nDuration                                 : 25mn 8s\r\nDuration_LastFrame                       : -14ms\r\nBit rate mode                            : Variable\r\nBit rate                                 : 114 Kbps\r\nMaximum bit rate                         : 128 Kbps\r\nChannel(s)                               : 2 channels\r\nChannel positions                        : Front: L R\r\nSampling rate                            : 44.1 KHz\r\nFrame rate                               : 43.066 fps (1024 spf)\r\nCompression mode                         : Lossy\r\nStream size                              : 20.4 MiB (3%)\r\nLanguage                                 : English\r\nDefault                                  : Yes\r\nAlternate group                          : 1","torrent":{"xt":"urn:btih:9f3ef1dafb8c2bf5f0192ab03aa850cff84e1abe","amp;dn":"PassionHD+-+Pretty+Pearl+Necklace+%28Teal+Conrad%29%5B08-29-2016%5D.mp4","amp;tr":["udp%3A%2F%2Ftracker.leechers-paradise.org%3A6969","udp%3A%2F%2Fzer0day.ch%3A1337","udp%3A%2F%2Fopen.demonii.com%3A1337","udp%3A%2F%2Ftracker.coppersurfer.tk%3A6969","udp%3A%2F%2Fexodus.desync.com%3A6969"],"infoHash":"9f3ef1dafb8c2bf5f0192ab03aa850cff84e1abe","infoHashBuffer":{"type":"Buffer","data":[159,62,241,218,251,140,43,245,240,25,42,176,58,168,80,207,248,78,26,190]},"announce":[],"urlList":[]}}